<?xml version="1.0" encoding="iso-8859-1"?>
<!-- Generator: Adobe Illustrator 27.0.0, SVG Export Plug-In . SVG Version: 6.00 Build 0)  -->
<svg version="1.1" baseProfile="basic" xmlns="http://www.w3.org/2000/svg" xmlns:xlink="http://www.w3.org/1999/xlink" x="0px"
	 y="0px" viewBox="0 0 100 100" xml:space="preserve">
<g id="Layer_1">
</g>
<g id="Layer_2">
</g>
<g id="&#x421;&#x43B;&#x43E;&#x439;_1">
</g>
<g id="&#x421;&#x43B;&#x43E;&#x439;_3">
	<g>
		<g>
			<path style="fill:#E3E2E3;" d="M37.096,89c-6.075,0-11-4.925-11-11V62.199c-0.065-1.405,0-2.449,0.044-2.941
				c0.282-3.16,1.879-5.898,4.212-7.71c-2.981-6.645-2.224-13.131-1.916-14.983c1.547-10.206,8.919-20.865,21.513-20.259
				c1.018,0.048,2.007,0.157,2.969,0.326c2.072-2.05,4.985-3.28,8.094-3.176c6.071,0.195,10.834,5.276,10.639,11.349
				c-0.002,0.066-0.215,6.816-0.215,18.781c0,2.634-0.929,5.061-2.482,6.961c4.483,3.959,6.088,8.669,6.222,12.306
				c0.349,3.926-0.576,9.322-4.185,13.845c-2.698,3.382-7.934,7.544-17.548,8.168c-2.789,0.181-5.285,0.049-7.514-0.308
				C43.923,87.254,40.714,89,37.096,89z M53.23,62.422c0,0.003,0,0.007-0.001,0.01C53.23,62.429,53.23,62.425,53.23,62.422z"/>
		</g>
	</g>
	<g>
		<g>
			<path d="M37.096,90c-6.617,0-12-5.383-12-12V62.199c-0.066-1.413,0.001-2.508,0.048-3.03c0.272-3.048,1.716-5.89,3.994-7.912
				c-2.742-6.654-1.994-13.017-1.688-14.856c1.605-10.598,9.359-21.729,22.547-21.094c0.876,0.041,1.746,0.128,2.594,0.258
				c2.3-2.085,5.367-3.213,8.454-3.107c6.611,0.212,11.817,5.766,11.604,12.38c-0.021,0.72-0.214,7.311-0.214,18.749
				c0,2.445-0.754,4.84-2.14,6.839c3.584,3.451,5.714,7.92,5.878,12.391c0.449,5.044-1.195,10.486-4.402,14.506
				c-2.823,3.539-8.284,7.895-18.265,8.542c-2.495,0.161-4.899,0.084-7.15-0.23C44.087,88.378,40.67,90,37.096,90z M48.942,17.281
				c-11.379,0-18.08,9.944-19.519,19.433c-0.295,1.779-1.028,8.033,1.84,14.425c0.189,0.421,0.065,0.916-0.299,1.199
				c-2.188,1.698-3.583,4.253-3.829,7.009c-0.042,0.472-0.104,1.465-0.041,2.806L27.096,78c0,5.514,4.486,10,10,10
				c3.194,0,6.121-1.473,8.029-4.039c0.223-0.299,0.594-0.449,0.961-0.391c2.271,0.364,4.725,0.464,7.291,0.297
				c9.25-0.601,14.258-4.569,16.831-7.794c2.894-3.627,4.378-8.536,3.97-13.132c-0.076-2.04-0.796-7.149-5.888-11.645
				c-0.402-0.356-0.452-0.967-0.112-1.383c1.455-1.78,2.257-4.027,2.257-6.328c0-11.469,0.193-18.088,0.215-18.805
				c0.178-5.521-4.161-10.148-9.671-10.326c-2.75-0.073-5.411,0.962-7.358,2.888c-0.23,0.228-0.558,0.33-0.876,0.274
				c-0.921-0.162-1.878-0.268-2.843-0.312C49.578,17.289,49.258,17.281,48.942,17.281z"/>
		</g>
	</g>
	<g>
		<g>
			<path style="fill:#F9B621;" d="M37.096,80.5c-1.381,0-2.5-1.119-2.5-2.5V61.818c-0.053-1.037,0.002-1.716,0.01-1.803
				c0.12-1.332,1.29-2.342,2.602-2.274c1.336,0.06,2.389,1.16,2.389,2.497v1.449c0.101,1.662,0.597,4.67,2.746,6.852
				c2.163,2.193,5.604,3.155,10.225,2.854c3.732-0.242,6.367-1.274,7.831-3.067c1.625-1.991,1.321-4.356,1.308-4.457
				c-0.034-0.247-0.062-0.335-0.025-0.557c-0.043-0.492-0.727-4.646-11.356-6.474c-4.829-0.83-8.477-2.964-10.84-6.341
				c-3.877-5.541-2.697-12.355-2.646-12.643c0.677-4.639,4.231-13.455,12.707-13.06c3.877,0.185,6.586,1.633,8.499,3.713
				c0.056-3.776,0.111-6.027,0.112-6.071c0.034-1.381,1.2-2.516,2.562-2.437c1.381,0.034,2.472,1.182,2.437,2.562
				c-0.002,0.088-0.22,8.872-0.22,21.023c0,1.331-1.042,2.428-2.371,2.497c-1.345,0.053-2.479-0.916-2.615-2.24
				c-0.747-7.224-1.971-13.735-8.642-14.053c-6.064-0.297-7.479,8.504-7.536,8.879c-0.017,0.099-0.515,3.087,0.468,6.197
				c1.221,3.865,4.226,6.236,8.933,7.045c14.391,2.474,15.47,9.603,15.506,11.42c0.119,1.017,0.328,4.731-2.331,8.064
				c-2.37,2.97-6.225,4.648-11.455,4.988c-5.634,0.366-10.104-0.836-13.295-3.574V78C39.596,79.381,38.477,80.5,37.096,80.5z"/>
		</g>
	</g>
	<g>
		<g>
			<path d="M50.964,71.947c-3.959,0-6.975-1.025-8.979-3.057c-2.275-2.311-2.787-5.485-2.889-7.173l-0.001-1.479
				c0-1.072-0.84-1.95-1.911-1.998c-1.067-0.047-1.985,0.763-2.081,1.82c-0.003,0.028-0.062,0.697-0.009,1.732l0.001,0.332
				c0,0.276-0.224,0.5-0.5,0.5s-0.5-0.224-0.5-0.5v-0.307c-0.055-1.061,0.005-1.771,0.012-1.848
				c0.143-1.586,1.545-2.812,3.125-2.729c1.604,0.071,2.863,1.388,2.863,2.996v1.449c0.093,1.518,0.556,4.423,2.603,6.501
				c2.059,2.086,5.371,2.998,9.836,2.706c3.588-0.232,6.104-1.203,7.476-2.885c1.486-1.82,1.212-3.982,1.2-4.073l-0.016-0.106
				c-0.024-0.163-0.046-0.306-0.019-0.523c-0.075-0.499-0.973-4.263-10.938-5.975c-4.965-0.854-8.722-3.057-11.164-6.547
				c-3.989-5.702-2.782-12.723-2.729-13.019c0.704-4.828,4.37-13.919,13.223-13.47c3.213,0.152,5.896,1.173,7.993,3.037
				c0.047-2.916,0.09-4.685,0.095-4.889c0.021-0.835,0.378-1.621,0.981-2.176c0.587-0.54,1.329-0.806,2.109-0.768
				c0.784,0.019,1.53,0.35,2.082,0.931c0.553,0.581,0.846,1.342,0.825,2.143c-0.002,0.059-0.156,6.253-0.205,15.553
				c-0.001,0.275-0.225,0.497-0.5,0.497c-0.001,0-0.002,0-0.003,0c-0.275-0.002-0.498-0.227-0.497-0.503
				c0.049-9.31,0.204-15.515,0.205-15.572c0.014-0.534-0.182-1.041-0.55-1.428c-0.368-0.388-0.865-0.608-1.399-0.621
				c-0.512-0.03-1.004,0.148-1.391,0.504c-0.404,0.373-0.645,0.899-0.658,1.445c-0.006,0.249-0.06,2.463-0.112,6.066
				c-0.003,0.204-0.131,0.387-0.322,0.459c-0.189,0.074-0.406,0.022-0.546-0.128c-2.019-2.196-4.763-3.391-8.154-3.553
				c-8.108-0.338-11.527,8.098-12.188,12.633c-0.054,0.296-1.193,6.92,2.561,12.283c2.284,3.265,5.821,5.328,10.515,6.135
				c10.789,1.854,11.697,6.093,11.77,6.923c0.004,0.042,0.002,0.083-0.005,0.124c-0.018,0.107-0.013,0.139,0.01,0.289l0.018,0.119
				c0.015,0.109,0.342,2.688-1.415,4.842c-1.556,1.905-4.31,2.998-8.187,3.25C52.037,71.929,51.492,71.947,50.964,71.947z"/>
		</g>
		<g>
			<path d="M34.596,69.25c-0.276,0-0.5-0.224-0.5-0.5v-3.125c0-0.276,0.224-0.5,0.5-0.5s0.5,0.224,0.5,0.5v3.125
				C35.096,69.026,34.872,69.25,34.596,69.25z"/>
		</g>
		<g>
			<path d="M37.096,81c-1.654,0-3-1.346-3-3v-7.25c0-0.276,0.224-0.5,0.5-0.5s0.5,0.224,0.5,0.5V78c0,1.103,0.897,2,2,2s2-0.897,2-2
				v-5.19c0-0.195,0.113-0.373,0.291-0.454c0.178-0.083,0.386-0.054,0.534,0.074c3.088,2.649,7.438,3.808,12.938,3.455
				c5.084-0.33,8.817-1.945,11.097-4.801c2.529-3.171,2.343-6.691,2.225-7.694c-0.042-2.013-1.245-8.605-15.094-10.985
				c-4.905-0.843-8.043-3.328-9.324-7.388c-1.011-3.198-0.506-6.3-0.484-6.431c0.06-0.385,1.479-9.627,8.054-9.295
				c7.067,0.336,8.344,7.051,9.114,14.5c0.109,1.064,0.989,1.851,2.099,1.792c1.058-0.055,1.891-0.933,1.891-1.997l0.002-2.212
				c0-0.275,0.225-0.499,0.5-0.499c0,0,0,0,0.001,0c0.275,0,0.499,0.225,0.499,0.501l-0.002,2.21c0,1.597-1.25,2.913-2.845,2.996
				c-1.592,0.076-2.976-1.092-3.139-2.688c-0.724-6.998-1.894-13.306-8.168-13.604c-0.092-0.004-0.182-0.006-0.271-0.006
				c-5.407,0-6.694,8.109-6.748,8.46c-0.021,0.13-0.488,3.001,0.45,5.973c1.16,3.673,4.034,5.929,8.541,6.702
				c14.603,2.511,15.878,9.745,15.921,11.903c0.126,1.052,0.331,4.913-2.44,8.386c-2.462,3.085-6.437,4.826-11.813,5.176
				c-5.305,0.34-9.607-0.679-12.827-3.038V78C40.096,79.654,38.75,81,37.096,81z"/>
		</g>
	</g>
</g>
</svg>